# xmcd
#
# Track frame offsets:
#	150
#	14812
#	29475
#	43210
#	55447
#	74910
#	86492
#	100165
#	115795
#	128105
#	139987
#	152915
#	165695
#	178775
#	190852
#	203470
#	214985
#	231735
#	244152
#	256545
#	267367
#	281502
#	292697
#	304845
#	320612
#	330537
#	342965
#
# Disc length: 4711 seconds
#
# Revision: 1
# Processed by: cddbd v1.4PL0 Copyright (c) Steve Scherf et al.
# Submitted via: MusicWizard 6.0.2
#
DISCID=a312651b
DTITLE=Dean Martin - Lay Some Happiness On Me   Vol. 3
DYEAR=1900
DGENRE=Vocal
TTITLE0=Crying Time
TTITLE1=I Take A Lot Of Pridge In What I Am
TTITLE2=If You Ever Get Around To Loving Me
TTITLE3=One Cup Of Happiness (And One Piece Of Mind)
TTITLE4=Little Green Apples
TTITLE5=Do You Believe This Town
TTITLE6=Where The Blue And Lonely Go
TTITLE7=Make It Rain
TTITLE8=The Sneaky Little Side Of Me
TTITLE9=The Sun Is Shining (On Everybody But Me)
TTITLE10=Down Home
TTITLE11=For The Love Of A Woman
TTITLE12=The Tracks Of My Tears
TTITLE13=Come On Down
TTITLE14=Make The World Go Away
TTITLE15=Together Again
TTITLE16=Detroit City
TTITLE17=Once A Day
TTITLE18=Heart Over Mind
TTITLE19=Turn The World Around
TTITLE20=Here We Go Again
TTITLE21=The Tips Of My Fingers
TTITLE22=It Keeps Right On A-Hurtin
TTITLE23=My Woman,My Woman,My Wife
TTITLE24=Invisible Tears
TTITLE25=Raindrops Keep Fallin' On My Head
TTITLE26=For Once In My Life
EXTD=
EXTT0=
EXTT1=
EXTT2=
EXTT3=
EXTT4=
EXTT5=
EXTT6=
EXTT7=
EXTT8=
EXTT9=
EXTT10=
EXTT11=
EXTT12=
EXTT13=
EXTT14=
EXTT15=
EXTT16=
EXTT17=
EXTT18=
EXTT19=
EXTT20=
EXTT21=
EXTT22=
EXTT23=
EXTT24=
EXTT25=
EXTT26=
PLAYORDER=
